PathFileType	4	(X/Y/Z)	./resultDataOpenSim/trcMotMarkerGrf/sub09/qtm-01-08.trc
DataRate	CameraRate	NumFrames	NumMarkers	Units	OrigDataRate	OrigDataStartFrame	OrigNumFrames
250.000000	250.000000	15	24	m	250.000000	1	470
Frame#	Time	L.Toe.Tip			R.Toe.Tip			L.Ankle.Lat			R.Ankle.Lat			L.Ankle.Med			R.Ankle.Med			L.Heel			R.Heel			L.Knee.Lat			R.Knee.Lat			L.Knee.Med			R.Knee.Med			L.Thigh.Upper			R.Thigh.Upper			L.ASIS			R.ASIS			V.Sacral			L.Acromium			R.Acromium			C7			L.Elbow			R.Elbow			L.Wrist.Lat			R.Wrist.Lat
		X1	Y1	Z1	X2	Y2	Z2	X3	Y3	Z3	X4	Y4	Z4	X5	Y5	Z5	X6	Y6	Z6	X7	Y7	Z7	X8	Y8	Z8	X9	Y9	Z9	X10	Y10	Z10	X11	Y11	Z11	X12	Y12	Z12	X13	Y13	Z13	X14	Y14	Z14	X15	Y15	Z15	X16	Y16	Z16	X17	Y17	Z17	X18	Y18	Z18	X19	Y19	Z19	X20	Y20	Z20	X21	Y21	Z21	X22	Y22	Z22	X23	Y23	Z23	X24	Y24	Z24

1	0	-1.5503996	0.037094187	-0.028243405	-1.0054139	0.089008845	0.095037876	-1.6949836	0.073963663	-0.06672151	-1.1556788	0.069933225	0.12566999	-1.6807482	0.08917638	0.031539272	-1.1484518	0.11068551	0.035464471	NaN	NaN	NaN	-1.206265	0.031913245	0.072816165	-1.5514349	0.46631642	-0.1200617	-1.2267728	0.5247072	0.16993043	-1.5561404	0.46773901	0.006052285	-1.2283198	0.50535295	0.042428658	-1.4540705	0.87753924	-0.16133034	-1.4300287	0.87651698	0.2092681	-1.3521749	0.95250695	-0.10634607	-1.3509404	0.95992664	0.13408557	-1.5143956	1.0185293	0.021247466	-1.3165215	1.4051377	-0.14906349	-1.3578324	1.4189849	0.17651163	-1.4002146	1.4630117	-0.0035129163	-1.4398195	1.0520552	-0.2293711	NaN	NaN	NaN	-1.2118807	0.90345374	-0.19150916	-1.3932026	0.85320022	0.28755713
2	0.004	-1.5502873	0.036966881	-0.028246037	-0.98883473	0.093234119	0.096025191	-1.6947874	0.074553689	-0.066232636	-1.1383737	0.070523973	0.12667849	-1.6791414	0.090221141	0.031159089	-1.1320773	0.11122193	0.036356488	NaN	NaN	NaN	-1.1886156	0.03101363	0.073196779	-1.549014	0.46612956	-0.12016455	-1.2208541	0.52328102	0.17025298	-1.5533118	0.46767457	0.0058613151	-1.2219039	0.50370742	0.042706129	-1.4483772	0.87632728	-0.16087908	-1.4242032	0.87487164	0.20944238	-1.3460791	0.95106464	-0.106217	-1.344847	0.95837547	0.13421071	-1.5085944	1.0168889	0.021348747	-1.3107174	1.4038593	-0.14857357	-1.3522039	1.4174358	0.17695361	-1.3943559	1.4620403	0.00070093139	-1.4333425	1.0496408	-0.22939218	NaN	NaN	NaN	-1.2042597	0.9032789	-0.19046734	-1.3879484	0.85135421	0.28789539
3	0.008	-1.5501844	0.036864377	-0.028239746	-0.97241125	0.097557215	0.097052585	-1.6946739	0.075159088	-0.065734214	-1.1211951	0.071256961	0.12770739	-1.6777916	0.091175348	0.030971121	-1.1160238	0.11175756	0.037205659	NaN	NaN	NaN	-1.1709642	0.030165098	0.07388602	-1.5465674	0.46594504	-0.12021412	-1.2148277	0.52183258	0.17055559	-1.5505123	0.4676173	0.0057682693	-1.2155001	0.50203898	0.042954852	-1.4426236	0.87508272	-0.16047754	-1.4182991	0.87321247	0.20962191	-1.3399671	0.94962435	-0.10608845	-1.3387434	0.95684672	0.13433362	-1.5027299	1.0152212	0.021473766	-1.3048916	1.4025628	-0.14808398	-1.3466258	1.4158811	0.17741652	-1.3883906	1.4609325	0.0043631159	-1.4267757	1.0474819	-0.22923021	NaN	NaN	NaN	-1.1966604	0.90306277	-0.18942489	-1.3826791	0.8495142	0.288267
4	0.012	-1.5500914	0.036791415	-0.0282209	-0.95622442	0.10200994	0.098124278	-1.6946161	0.075791985	-0.065235657	-1.1042871	0.072173314	0.12872431	-1.6766688	0.092055829	0.030975336	-1.1004542	0.11232535	0.037989369	NaN	NaN	NaN	-1.1534301	0.02944049	0.074878756	-1.5440324	0.46575415	-0.12018817	-1.2087023	0.5203368	0.17086957	-1.5477557	0.46756588	0.0058152443	-1.2091126	0.50033459	0.043181841	-1.4367565	0.87379894	-0.16016434	-1.412281	0.87152247	0.20979972	-1.333827	0.94818061	-0.10595635	-1.3325898	0.95532394	0.13445607	-1.4966817	1.0135251	0.021689535	-1.2990283	1.4012362	-0.14758792	-1.3410685	1.4143063	0.17790731	-1.3823622	1.4596481	0.0070865815	-1.4200763	1.0455779	-0.22889604	NaN	NaN	NaN	-1.1890893	0.90278186	-0.1883912	-1.3773763	0.84766668	0.28867804
5	0.016	-1.5500034	0.036736911	-0.028191312	-0.9403823	0.10651238	0.09919368	-1.6945291	0.076463599	-0.064752041	-1.08784	0.073208429	0.12965777	-1.6756253	0.092916087	0.03105865	-1.0853705	0.11298723	0.038710815	NaN	NaN	NaN	-1.1362241	0.028909177	0.075965759	-1.5413508	0.46554898	-0.12009813	-1.2024754	0.51882277	0.17119964	-1.5450116	0.46751532	0.0059870533	-1.2027563	0.49858923	0.043421332	-1.4307955	0.87248869	-0.15993814	-1.4061292	0.86980321	0.20996798	-1.3276684	0.94672354	-0.10582164	-1.3263523	0.95378545	0.1345679	-1.4904305	1.0118013	0.022002351	-1.2931294	1.3998806	-0.14707132	-1.3354794	1.4126991	0.17841906	-1.3763994	1.4582596	0.0088378251	-1.4132656	1.04378	-0.2284801	NaN	NaN	NaN	-1.1815552	0.90243132	-0.18737992	-1.3720289	0.845798	0.28910998
6	0.02	-1.5499181	0.036687889	-0.028156003	-0.92503871	0.11092539	0.10018815	-1.6943516	0.077190826	-0.064297701	-1.0719969	0.074271449	0.13045214	-1.6746102	0.093764947	0.031149322	-1.0706964	0.11378426	0.039383484	NaN	NaN	NaN	-1.1194921	0.028595035	0.076988075	-1.5384945	0.46533005	-0.11997458	-1.1960738	0.51734895	0.17151345	-1.542191	0.46745241	0.0062410864	-1.1964295	0.49680935	0.043691319	-1.4248175	0.87116432	-0.15976551	-1.3998224	0.86806781	0.21012175	-1.3215119	0.94524849	-0.10570112	-1.3200193	0.95223059	0.13465758	-1.4841156	1.0100131	0.022277663	-1.2871929	1.3985076	-0.14653523	-1.3298259	1.4110569	0.17893999	-1.3705371	1.4568437	0.0099181622	-1.4063899	1.0419982	-0.22803642	NaN	NaN	NaN	-1.1740562	0.90201105	-0.1863942	-1.3666201	0.84391012	0.28954113
7	0.024	-1.5498351	0.036634219	-0.028120105	-0.91032139	0.11513198	0.10104425	-1.6940713	0.077981888	-0.063894956	-1.0568041	0.075308202	0.13109753	-1.673627	0.094583738	0.031240347	-1.0563952	0.11470598	0.040005788	NaN	NaN	NaN	-1.1032909	0.028465353	0.077908248	-1.5354584	0.46509944	-0.11985217	-1.1894773	0.51593801	0.17181942	-1.5391925	0.46735108	0.0065274893	-1.1901014	0.49501917	0.043973198	-1.4188805	0.86983074	-0.15961481	-1.3933636	0.86632424	0.21025611	-1.3153774	0.9437604	-0.10562263	-1.3136	0.95067333	0.13473523	-1.4778901	1.0081351	0.022362136	-1.2812128	1.3971327	-0.14600937	-1.3240891	1.4093882	0.17945971	-1.3647018	1.4554142	0.010717384	-1.3994675	1.0402429	-0.22756339	NaN	NaN	NaN	-1.1665807	0.90151896	-0.18543156	-1.3611341	0.8420149	0.28995781
8	0.028	-1.5497526	0.036569328	-0.028086535	-0.89627112	0.11906693	0.10172799	-1.6937338	0.078822958	-0.063560944	-1.0422428	0.076299257	0.13161143	-1.6726512	0.095362765	0.031341274	-1.0424995	0.11570887	0.040550936	NaN	NaN	NaN	-1.0876252	0.028455383	0.078768231	-1.5322518	0.46485114	-0.11975278	-1.1827291	0.51458524	0.17216589	-1.5359455	0.46718927	0.0068033833	-1.1837315	0.49324474	0.044246829	-1.4129887	0.86848524	-0.15946574	-1.386757	0.86457346	0.21037544	-1.3092648	0.94226256	-0.10560156	-1.3071022	0.94912736	0.13481716	-1.4717795	1.0061974	0.022244491	-1.2751933	1.395761	-0.14551713	-1.3182566	1.4077055	0.17997283	-1.3588224	1.4539683	0.011484319	-1.3924727	1.0385519	-0.22701246	NaN	NaN	NaN	-1.1591224	0.90095445	-0.1844964	-1.3555656	0.84011729	0.29035593
9	0.032	-1.5496677	0.036495392	-0.028057544	-0.88285353	0.12270148	0.10224236	-1.6934279	0.079694378	-0.063289683	-1.0282701	0.07723546	0.13200565	-1.6716544	0.096109356	0.031450584	-1.0290825	0.1167398	0.04098537	NaN	NaN	NaN	-1.0724984	0.028503845	0.079608372	-1.5288868	0.46456709	-0.11967478	-1.1758499	0.51328588	0.1725947	-1.5324531	0.46695856	0.0070564214	-1.1772957	0.49150356	0.044528991	-1.407123	0.86712488	-0.15929893	-1.38001	0.86281186	0.21049199	-1.3031544	0.94075612	-0.10562533	-1.3005179	0.94759355	0.13490394	-1.4656659	1.0042563	0.022117466	-1.2691533	1.3943848	-0.14504319	-1.3123378	1.4060203	0.18047891	-1.3528896	1.4525188	0.012266328	-1.3854152	1.0369221	-0.22638536	NaN	NaN	NaN	-1.1516919	0.90032335	-0.18359619	-1.3499237	0.8382091	0.29074091
10	0.036	-1.5495792	0.036423792	-0.028035721	-0.87001401	0.12602379	0.10262383	-1.6932389	0.080588752	-0.063060985	-1.0147666	0.078143398	0.1323022	-1.6706533	0.09684199	0.031552497	-1.0161955	0.11775551	0.041303581	NaN	NaN	NaN	-1.057967	0.028581649	0.080363152	-1.5253594	0.46422509	-0.11960275	-1.168808	0.51203496	0.17312791	-1.5287727	0.46665478	0.0073074583	-1.170783	0.48981274	0.044859283	-1.401268	0.86575246	-0.15909498	-1.3731425	0.86103382	0.21061538	-1.2970267	0.93924631	-0.10566999	-1.293845	0.94606328	0.13498841	-1.4593561	1.0023657	0.022351342	-1.2631107	1.3929961	-0.14455813	-1.306363	1.4043427	0.18098415	-1.346924	1.4510734	0.013011206	-1.3783813	1.0353109	-0.2257762	NaN	NaN	NaN	-1.1443059	0.89963539	-0.18272971	-1.3442231	0.83627726	0.29112123
11	0.04	-1.549488	0.036364212	-0.028021291	-0.85773905	0.12902096	0.10292799	-1.6931882	0.081505971	-0.062863046	-1.0014512	0.079137967	0.13258549	-1.6696947	0.097582587	0.031620751	-1.0038153	0.11873558	0.041538989	NaN	NaN	NaN	-1.0441332	0.028692636	0.080874144	-1.5216381	0.46381522	-0.1195198	-1.1615625	0.51083047	0.17375598	-1.5249302	0.466277	0.0075722455	-1.1641716	0.48819817	0.04525942	-1.3954175	0.86437372	-0.15884847	-1.3661651	0.85923776	0.21075304	-1.2908711	0.93773518	-0.10572482	-1.2871108	0.94452917	0.13506655	-1.4527202	1.0005615	0.023273142	-1.2570557	1.3915971	-0.14405678	-1.3003561	1.4026749	0.18150066	-1.3409483	1.4496249	0.013654256	-1.3714458	1.0336863	-0.22525865	NaN	NaN	NaN	-1.1369687	0.89889447	-0.18189106	-1.3384719	0.83431916	0.29150142
12	0.044	-1.5493943	0.036317001	-0.028011608	-0.84606992	0.13167176	0.10320666	-1.6932044	0.082452529	-0.062703344	-0.98803082	0.080352205	0.13297333	-1.6687953	0.098351111	0.031630528	-0.99188584	0.1196652	0.041733377	NaN	NaN	NaN	-1.0310725	0.028830386	0.081046754	-1.5176771	0.4633443	-0.11940611	-1.1541263	0.50967765	0.17443391	-1.520893	0.46584192	0.0078313279	-1.1574166	0.48669426	0.045717099	-1.3895683	0.86299526	-0.15857041	-1.3590797	0.85743025	0.21090972	-1.2846855	0.93622011	-0.10579385	-1.2803491	0.94298891	0.13513518	-1.4458252	0.99883995	0.024798478	-1.2509522	1.3901998	-0.14355526	-1.2943181	1.4010085	0.18203482	-1.3349891	1.4481649	0.014133952	-1.3645994	1.0320512	-0.22479819	NaN	NaN	NaN	-1.1296739	0.89809591	-0.1810823	-1.3326647	0.83234874	0.29188272
13	0.048	-1.549295	0.036278382	-0.028005684	-0.83506037	0.13395695	0.10348313	-1.693174	0.083451266	-0.062598389	-0.97465493	0.081702319	0.1334672	-1.6679109	0.099162914	0.031567293	-0.98042415	0.12050216	0.041901898	NaN	NaN	NaN	-1.0188033	0.028941308	0.080932744	-1.5134424	0.46282435	-0.11924639	-1.1465545	0.50858577	0.17511659	-1.5165848	0.46537981	0.0080479794	-1.1504644	0.4853355	0.04619959	-1.3837122	0.86162725	-0.15827382	-1.3518897	0.85562416	0.21108974	-1.2784711	0.93470594	-0.10588154	-1.2735739	0.941447	0.13519097	-1.4389041	0.99716403	0.026393203	-1.2447754	1.3888174	-0.14305983	-1.2882335	1.3993359	0.18257978	-1.3290434	1.4467045	0.014496335	-1.3577861	1.0304259	-0.22430366	-1.4464429	1.0723546	0.27004816	-1.1224233	0.89723676	-0.18031143	-1.3267817	0.83038791	0.29226627
14	0.052	-1.5491849	0.036247237	-0.028006899	-0.82474406	0.13587087	0.10375049	-1.693035	0.084525653	-0.062560541	-0.96204961	0.082807485	0.13389116	-1.6669742	0.10002628	0.031426663	-0.96954653	0.12116856	0.042037147	NaN	NaN	NaN	-1.0073273	0.02894592	0.080653488	-1.5089186	0.46226709	-0.11903989	-1.1388794	0.5075609	0.17579166	-1.5119433	0.46489465	0.0082094869	-1.1432679	0.48414931	0.046676827	-1.3778338	0.86028151	-0.15796342	-1.3446059	0.85383255	0.21130601	-1.2722252	0.93320829	-0.10598293	-1.2667806	0.93991472	0.13523728	-1.4321452	0.99550456	0.027567556	-1.2385383	1.3874566	-0.14255379	-1.2820879	1.3976626	0.18312676	-1.3230276	1.4452793	0.015019346	-1.3509698	1.0288338	-0.22373686	-1.4399567	1.07065	0.27054571	-1.1152312	0.89632348	-0.17957998	-1.3208049	0.82845741	0.2926533
15	0.056	-1.5490612	0.036224543	-0.028019655	-0.81513743	0.13740735	0.10400104	-1.6927916	0.085679223	-0.062607393	-0.95090204	0.083301464	0.13407519	-1.6659648	0.10094466	0.0312128	-0.95938492	0.12157623	0.042137047	NaN	NaN	NaN	-0.99666173	0.028782177	0.080312499	-1.5040931	0.46168844	-0.11878608	-1.1311038	0.50659558	0.17646337	-1.5070255	0.46434813	0.0083412174	-1.1357873	0.48314922	0.047135832	-1.3719139	0.85896717	-0.15763428	-1.3372645	0.85206556	0.21157555	-1.2659409	0.93174367	-0.10608344	-1.2599532	0.9384057	0.13528777	-1.4255563	0.99386683	0.028270627	-1.2322808	1.3861194	-0.14201706	-1.2758786	1.3960068	0.1836751	-1.3168105	1.4439258	0.016077117	-1.3441554	1.0272988	-0.22315171	-1.4335979	1.0688811	0.27092923	-1.1081096	0.89536528	-0.17887901	-1.3147407	0.82657056	0.29304383
